<?xml version="1.0" encoding="UTF-8"?>
<svg width="96px" height="94px" viewBox="0 0 96 94" version="1.1" xmlns="http://www.w3.org/2000/svg" xmlns:xlink="http://www.w3.org/1999/xlink">
    <!-- Generator: Sketch 49.2 (51160) - http://www.bohemiancoding.com/sketch -->
    <title>happy</title>
    <desc>Created with Sketch.</desc>
    <defs></defs>
    <g id="Page-1" stroke="none" stroke-width="1" fill="none" fill-rule="evenodd">
        <g id="Mobile-Feedback" transform="translate(-112.000000, -309.000000)" fill="#67CD60" fill-rule="nonzero">
            <g id="happy" transform="translate(112.000000, 309.000000)">
                <path d="M95.1665455,51.0738154 C95.1665455,74.7488 75.8589091,93.9421538 52.0436364,93.9421538 C28.2269091,93.9421538 8.92072727,74.7488 8.92072727,51.0738154 C8.92072727,27.3973846 28.2269091,8.20403077 52.0436364,8.20403077 C75.8589091,8.20403077 95.1665455,27.3973846 95.1665455,51.0738154 Z" id="path-1_46_" fill-opacity="0.199999988"></path>
                <path d="M50.9658182,69.748 L43.1141818,69.748 C33.0850909,69.748 25.2290909,62.0660308 25.2290909,52.2582154 C25.2290909,51.0593538 26.2065455,50.0889846 27.4109091,50.0889846 C28.6167273,50.0889846 29.5927273,51.0593538 29.5927273,52.2582154 C29.5927273,59.6336 35.5316364,65.4109846 43.1141818,65.4109846 L50.9658182,65.4109846 C58.5483636,65.4109846 64.4872727,59.7608615 64.4872727,52.5488923 C64.4872727,51.3500308 65.4632727,50.3796615 66.6690909,50.3796615 C67.8749091,50.3796615 68.8509091,51.3500308 68.8509091,52.5488923 C68.8509091,62.1947385 60.9949091,69.748 50.9658182,69.748 Z" id="path-2_46_"></path>
                <path d="M36.7956364,33.6635692 C36.2385455,33.6635692 35.68,33.4524308 35.2538182,33.0287077 C33.1854545,30.9737231 29.7643636,30.8999692 27.7847273,32.8696308 C26.9323636,33.7170769 25.5505455,33.7170769 24.6981818,32.8696308 C23.8458182,32.0236308 23.8458182,30.6497846 24.6981818,29.8037846 C28.3534545,26.1696 34.5992727,26.2433538 38.3389091,29.9614154 C39.1912727,30.8074154 39.1912727,32.1812615 38.3389091,33.0287077 C37.9127273,33.4524308 37.3541818,33.6635692 36.7956364,33.6635692 Z" id="path-3_46_"></path>
                <path d="M66.4756364,33.6635692 C65.9170909,33.6635692 65.3585455,33.4524308 64.9323636,33.0287077 C62.8669091,30.9737231 59.4443636,30.8999692 57.4632727,32.8696308 C56.6109091,33.7170769 55.2305455,33.7170769 54.3781818,32.8696308 C53.5258182,32.0236308 53.5258182,30.6497846 54.3781818,29.8037846 C58.032,26.1696 64.2778182,26.2433538 68.0174545,29.9614154 C68.8698182,30.8074154 68.8698182,32.1812615 68.0174545,33.0287077 C67.5912727,33.4524308 67.0327273,33.6635692 66.4756364,33.6635692 Z" id="path-4_46_"></path>
                <path d="M45.3047273,90.7519385 C20.3243636,90.7519385 0,70.5477231 0,45.7143692 C0,20.8810154 20.3243636,0.6768 45.3047273,0.6768 C70.2865455,0.6768 90.6094545,20.8810154 90.6094545,45.7143692 C90.6094545,70.5477231 70.2865455,90.7519385 45.3047273,90.7519385 Z M45.3047273,5.01526154 C22.7301818,5.01526154 4.36363636,23.2715077 4.36363636,45.7143692 C4.36363636,68.1572308 22.7301818,86.4149231 45.3047273,86.4149231 C67.8807273,86.4149231 86.2458182,68.1572308 86.2458182,45.7143692 C86.2458182,23.2715077 67.8807273,5.01526154 45.3047273,5.01526154 Z" id="path-5_46_"></path>
            </g>
        </g>
    </g>
</svg>