<?xml version="1.0" encoding="UTF-8"?>
<svg width="42px" height="39px" viewBox="0 0 42 39" version="1.1" xmlns="http://www.w3.org/2000/svg" xmlns:xlink="http://www.w3.org/1999/xlink">
    <!-- Generator: Sketch 49.2 (51160) - http://www.bohemiancoding.com/sketch -->
    <title>Page 1</title>
    <desc>Created with Sketch.</desc>
    <defs></defs>
    <g id="Page-1" stroke="none" stroke-width="1" fill="none" fill-rule="evenodd">
        <g id="Feedback-3" transform="translate(-884.000000, -919.000000)" fill="#43C6F0" stroke="#43C6F0">
            <path d="M924.901393,920.261451 C924.632446,919.994264 924.152548,919.677846 923.393173,919.677846 C923.017,919.677846 922.610938,919.756947 922.182043,919.915149 L887.243593,932.775249 C885.443593,933.437964 885.072703,934.557654 885.011189,935.165874 C884.949665,935.774094 885.092049,936.944769 886.726814,937.950249 L896.911663,944.216949 L896.911663,954.089049 C896.911663,955.983954 897.686878,956.658954 898.335508,956.892774 C898.532383,956.963087 898.739806,957 898.948993,957 C899.708368,957 900.473008,956.541225 901.218343,955.637715 L906.015343,949.821015 L911.211493,953.01849 C911.898778,953.442125 912.726733,953.54409 913.447453,953.290952 C914.173438,953.037827 914.746468,952.448957 915.020698,951.677297 L925.273948,922.975847 C925.811833,921.467627 925.272189,920.627387 924.901294,920.261807 L924.901393,920.261451 Z M897.926143,942.200751 L887.906443,936.034401 C887.380843,935.710964 887.254303,935.449041 887.250793,935.394546 C887.266611,935.331267 887.440639,935.100993 888.022453,934.886541 L920.300953,923.005641 L897.926143,942.200751 Z M899.481793,954.204951 C899.369293,954.342062 899.269096,954.444014 899.186481,954.523115 C899.172418,954.408855 899.16187,954.266475 899.16187,954.088937 L899.16187,945.604187 L901.533145,947.063177 L901.612246,947.142278 L901.661467,947.142278 L904.078462,948.631148 L899.481793,954.204951 Z M912.902593,950.923101 C912.856891,951.051423 912.783064,951.141072 912.703959,951.169197 C912.619584,951.199082 912.507084,951.174471 912.392824,951.104159 L902.789824,945.192509 L899.938669,943.438229 L922.482769,924.097229 L912.902593,950.923101 Z" id="Page-1"></path>
        </g>
    </g>
</svg>