<?xml version="1.0" encoding="UTF-8"?>
<svg width="96px" height="96px" viewBox="0 0 96 96" version="1.1" xmlns="http://www.w3.org/2000/svg" xmlns:xlink="http://www.w3.org/1999/xlink">
    <!-- Generator: Sketch 49.2 (51160) - http://www.bohemiancoding.com/sketch -->
    <title>neutral</title>
    <desc>Created with Sketch.</desc>
    <defs></defs>
    <g id="Page-1" stroke="none" stroke-width="1" fill="none" fill-rule="evenodd">
        <g id="Mobile-Feedback" transform="translate(-112.000000, -510.000000)" fill="#FFCC00" fill-rule="nonzero">
            <g id="neutral" transform="translate(112.000000, 510.000000)">
                <path d="M95.2615385,51.4752 C95.2615385,75.6539077 75.6568615,95.2556308 51.4737231,95.2556308 C27.2920615,95.2556308 7.68886154,75.6539077 7.68886154,51.4752 C7.68886154,27.2950154 27.2920615,7.69329231 51.4737231,7.69329231 C75.6568615,7.69329231 95.2615385,27.2950154 95.2615385,51.4752 Z" id="path-1_49_" fill-opacity="0.204115716"></path>
                <path d="M67.6105846,64.6419692 L26.2567385,64.6419692 C25.0338462,64.6419692 24.0413538,63.6494769 24.0413538,62.4265846 C24.0413538,61.2022154 25.0338462,60.2112 26.2567385,60.2112 L67.6105846,60.2112 C68.8334769,60.2112 69.8259692,61.2022154 69.8259692,62.4265846 C69.8259692,63.6494769 68.8334769,64.6419692 67.6105846,64.6419692 Z" id="path-2_49_"></path>
                <path d="M66.4585846,33.9456 C66.4585846,36.8713846 64.0851692,39.2418462 61.1608615,39.2418462 C58.2365538,39.2418462 55.8646154,36.8713846 55.8646154,33.9456 C55.8646154,31.0212923 58.2365538,28.6508308 61.1608615,28.6508308 C64.0851692,28.6508308 66.4585846,31.0212923 66.4585846,33.9456 Z" id="path-3_49_"></path>
                <path d="M36.0014769,33.9456 C36.0014769,36.8713846 33.6295385,39.2418462 30.7052308,39.2418462 C27.7794462,39.2418462 25.4089846,36.8713846 25.4089846,33.9456 C25.4089846,31.0212923 27.7794462,28.6508308 30.7052308,28.6508308 C33.6295385,28.6508308 36.0014769,31.0212923 36.0014769,33.9456 Z" id="path-4_49_"></path>
                <path d="M46.0017231,91.9975385 C20.6370462,91.9975385 0,71.3634462 0,46.0017231 C0,20.64 20.6370462,0.00590769231 46.0017231,0.00590769231 C71.3664,0.00590769231 92.0034462,20.64 92.0034462,46.0017231 C92.0034462,71.3634462 71.3664,91.9975385 46.0017231,91.9975385 Z M46.0017231,4.43667692 C23.0798769,4.43667692 4.43076923,23.0813538 4.43076923,46.0017231 C4.43076923,68.9220923 23.0798769,87.5682462 46.0017231,87.5682462 C68.9250462,87.5682462 87.5726769,68.9220923 87.5726769,46.0017231 C87.5726769,23.0813538 68.9250462,4.43667692 46.0017231,4.43667692 Z" id="path-5_49_"></path>
            </g>
        </g>
    </g>
</svg>