<?xml version="1.0" encoding="UTF-8"?>
<svg width="96px" height="94px" viewBox="0 0 96 94" version="1.1" xmlns="http://www.w3.org/2000/svg" xmlns:xlink="http://www.w3.org/1999/xlink">
    <!-- Generator: Sketch 49.2 (51160) - http://www.bohemiancoding.com/sketch -->
    <title>sad</title>
    <desc>Created with Sketch.</desc>
    <defs></defs>
    <g id="Page-1" stroke="none" stroke-width="1" fill="none" fill-rule="evenodd">
        <g id="Mobile-Feedback" transform="translate(-112.000000, -713.000000)" fill="#F05764" fill-rule="nonzero">
            <g id="sad" transform="translate(112.000000, 713.000000)">
                <path d="M95.1665455,51.0738154 C95.1665455,74.7488 75.8589091,93.9421538 52.0421818,93.9421538 C28.2269091,93.9421538 8.92072727,74.7488 8.92072727,51.0738154 C8.92072727,27.3973846 28.2269091,8.20403077 52.0421818,8.20403077 C75.8589091,8.20403077 95.1665455,27.3973846 95.1665455,51.0738154 Z" id="path-1_47_" fill-opacity="0.200718976"></path>
                <path d="M27.4109091,69.6670154 C26.2065455,69.6670154 25.2290909,68.6966462 25.2290909,67.4977846 C25.2290909,57.5771692 33.2509091,49.5047385 43.1141818,49.5047385 L50.9658182,49.5047385 C60.8276364,49.5047385 68.8509091,57.528 68.8509091,67.3907692 C68.8509091,68.5896308 67.8734545,69.56 66.6690909,69.56 C65.4647273,69.56 64.4872727,68.5896308 64.4872727,67.3907692 C64.4872727,59.9213846 58.4218182,53.8417538 50.9658182,53.8417538 L43.1141818,53.8417538 C35.6581818,53.8417538 29.5927273,59.9676615 29.5927273,67.4977846 C29.5927273,68.6980923 28.6152727,69.6670154 27.4109091,69.6670154 Z" id="path-2_47_"></path>
                <path d="M36.7956364,33.6635692 C36.2370909,33.6635692 35.6785455,33.4524308 35.2523636,33.0287077 C33.184,30.9737231 29.7672727,30.8999692 27.7847273,32.8696308 C26.9323636,33.7170769 25.5505455,33.7170769 24.6981818,32.8696308 C23.8458182,32.0236308 23.8458182,30.6497846 24.6981818,29.8037846 C28.352,26.1710462 34.5963636,26.2419077 38.3374545,29.9614154 C39.1898182,30.8074154 39.1898182,32.1812615 38.3374545,33.0287077 C37.9112727,33.4524308 37.3541818,33.6635692 36.7956364,33.6635692 Z" id="path-3_47_"></path>
                <path d="M66.4741818,33.6635692 C65.9156364,33.6635692 65.3570909,33.4524308 64.9323636,33.0287077 C62.864,30.9737231 59.4458182,30.8999692 57.4632727,32.8696308 C56.6109091,33.7170769 55.2305455,33.7170769 54.3781818,32.8696308 C53.5258182,32.0236308 53.5258182,30.6497846 54.3781818,29.8037846 C58.0305455,26.1710462 64.2763636,26.2419077 68.0174545,29.9614154 C68.8698182,30.8074154 68.8698182,32.1812615 68.0174545,33.0287077 C67.5912727,33.4524308 67.0327273,33.6635692 66.4741818,33.6635692 Z" id="path-4_47_"></path>
                <path d="M45.3047273,90.7519385 C20.3243636,90.7519385 0,70.5477231 0,45.7143692 C0,20.8810154 20.3243636,0.6768 45.3047273,0.6768 C70.2850909,0.6768 90.6094545,20.8810154 90.6094545,45.7143692 C90.6094545,70.5477231 70.2850909,90.7519385 45.3047273,90.7519385 Z M45.3047273,5.01526154 C22.7301818,5.01526154 4.36363636,23.2715077 4.36363636,45.7143692 C4.36363636,68.1572308 22.7301818,86.4149231 45.3047273,86.4149231 C67.8807273,86.4149231 86.2458182,68.1572308 86.2458182,45.7143692 C86.2458182,23.2715077 67.8807273,5.01526154 45.3047273,5.01526154 Z" id="path-5_47_"></path>
            </g>
        </g>
    </g>
</svg>